<?xml version="1.0" encoding="utf-8"?>
<!-- Generator: Adobe Illustrator 17.1.0, SVG Export Plug-In . SVG Version: 6.00 Build 0)  -->
<!DOCTYPE svg PUBLIC "-//W3C//DTD SVG 1.1//EN" "http://www.w3.org/Graphics/SVG/1.1/DTD/svg11.dtd">
<svg version="1.1" id="Layer_1" xmlns="http://www.w3.org/2000/svg" xmlns:xlink="http://www.w3.org/1999/xlink" x="0px" y="0px"
	 width="60px" height="18px" viewBox="0 0 60 18" enable-background="new 0 0 60 18" xml:space="preserve">
<g>
	<path fill="#D85C36" d="M4.1,4.8v1.6h0c0.1-0.3,0.3-0.5,0.5-0.7C4.8,5.4,5,5.2,5.3,5.1c0.2-0.2,0.5-0.3,0.8-0.4
		c0.3-0.1,0.6-0.1,0.9-0.1c0.2,0,0.3,0,0.5,0.1v2.2c-0.1,0-0.2,0-0.4-0.1c-0.2,0-0.3,0-0.5,0C6.2,6.8,5.8,6.9,5.5,7
		C5.2,7.1,5,7.3,4.8,7.6C4.6,7.8,4.5,8.1,4.4,8.5C4.3,8.8,4.3,9.2,4.3,9.6v3.9H1.9V4.8H4.1z"/>
	<path fill="#D85C36" d="M11.1,11.4c0.4,0.3,0.9,0.5,1.5,0.5c0.5,0,0.9-0.1,1.2-0.4c0.3-0.2,0.6-0.5,0.6-0.8h2.1
		c-0.3,1-0.8,1.8-1.5,2.2c-0.7,0.4-1.5,0.7-2.5,0.7c-0.7,0-1.3-0.1-1.8-0.3c-0.5-0.2-1-0.5-1.4-0.9C8.9,12,8.7,11.5,8.4,11
		c-0.2-0.6-0.3-1.2-0.3-1.8c0-0.6,0.1-1.3,0.3-1.8c0.2-0.6,0.5-1,0.9-1.4c0.4-0.4,0.9-0.7,1.4-1c0.5-0.2,1.1-0.4,1.8-0.4
		c0.7,0,1.4,0.1,1.9,0.4c0.5,0.3,1,0.7,1.3,1.1c0.4,0.5,0.6,1,0.8,1.6c0.2,0.6,0.2,1.3,0.2,1.9h-6.3C10.6,10.5,10.7,11,11.1,11.4z
		 M13.8,6.8c-0.3-0.3-0.7-0.5-1.3-0.5c-0.4,0-0.7,0.1-0.9,0.2c-0.3,0.1-0.5,0.3-0.6,0.5c-0.2,0.2-0.3,0.4-0.3,0.6
		c-0.1,0.2-0.1,0.4-0.1,0.6h3.9C14.3,7.6,14.1,7.1,13.8,6.8z"/>
	<path fill="#D85C36" d="M24.5,13.5v-1.2h-0.1c-0.3,0.5-0.7,0.9-1.2,1.1c-0.5,0.2-1,0.3-1.5,0.3c-0.6,0-1.2-0.1-1.6-0.3
		c-0.4-0.2-0.7-0.4-1-0.7c-0.2-0.3-0.4-0.7-0.5-1.1c-0.1-0.4-0.1-0.9-0.1-1.5V4.8H21v4.9c0,0.7,0.1,1.2,0.3,1.6
		c0.2,0.4,0.6,0.5,1.2,0.5c0.6,0,1.1-0.2,1.4-0.6c0.3-0.4,0.4-1,0.4-1.9V4.8h2.4v8.7H24.5z"/>
	<path fill="#D85C36" d="M31.3,4.8V6h0.1c0.3-0.5,0.7-0.9,1.2-1.1c0.5-0.2,1-0.3,1.5-0.3c0.6,0,1.2,0.1,1.6,0.3
		c0.4,0.2,0.7,0.4,1,0.7c0.2,0.3,0.4,0.7,0.5,1.1c0.1,0.4,0.1,0.9,0.1,1.5v5.3h-2.4V8.6c0-0.7-0.1-1.2-0.3-1.6
		c-0.2-0.4-0.6-0.5-1.2-0.5c-0.6,0-1.1,0.2-1.4,0.6c-0.3,0.4-0.4,1-0.4,1.9v4.5H29V4.8H31.3z"/>
	<path fill="#D85C36" d="M39.5,3.5v-2h2.4v2H39.5z M41.9,4.8v8.7h-2.4V4.8H41.9z"/>
	<path fill="#D85C36" d="M43.3,6.4V4.8h1.4V4.1c0-0.8,0.2-1.4,0.7-1.9c0.5-0.5,1.2-0.7,2.2-0.7c0.2,0,0.4,0,0.6,0c0.2,0,0.4,0,0.6,0
		v1.8c-0.3,0-0.6-0.1-0.9-0.1c-0.3,0-0.6,0.1-0.7,0.2c-0.1,0.2-0.2,0.4-0.2,0.8v0.5h1.6v1.6h-1.6v7.1h-2.4V6.4H43.3z"/>
	<path fill="#D85C36" d="M53.4,16c-0.5,0.3-1.1,0.5-1.9,0.5c-0.2,0-0.5,0-0.7,0c-0.2,0-0.5,0-0.7-0.1v-2c0.2,0,0.5,0,0.7,0.1
		c0.2,0,0.5,0,0.7,0c0.3,0,0.5-0.2,0.7-0.4c0.2-0.2,0.2-0.4,0.2-0.7c0-0.2,0-0.4-0.1-0.5l-3-8.1h2.5l2,5.9h0l1.9-5.9h2.5l-3.6,9.7
		C54.2,15.2,53.9,15.7,53.4,16z"/>
</g>
</svg>
